<svg id="Layer_1" data-name="Layer 1" xmlns="http://www.w3.org/2000/svg" viewBox="0 0 532.52 529"><defs><style>.cls-1{fill:#00d678;}.cls-2{fill:#fdfefe;}.cls-3{fill:#fcfefd;}</style></defs><title>profileicon</title><path class="cls-1" d="M266.37,0C416.43.14,531.92,114.28,532.52,263c.61,150.92-116.59,266.46-269.79,266C113.39,528.53-1,412.45,0,262.37,1,111.9,114.75-.14,266.37,0Z" transform="translate(0 0)"/><path class="cls-2" d="M174.8,197.86c.61-56.84,37.31-95.41,90.67-95.29,55,.12,95.49,43.13,93.91,99.83-1.9,67.67-49.67,133-95.84,131C215.42,331.39,174,268.17,174.8,197.86Z" transform="translate(0 0)"/><path class="cls-3" d="M100.89,394.26c54.12-30.33,100.89-33.14,137.69,23.3,16.29,25,35.16,25.83,52.6-.24,36.56-54.63,82.95-56.58,134.71-24C357.08,496.76,195.5,499.35,100.89,394.26Z" transform="translate(0 0)"/></svg>